<mxfile host="app.diagrams.net" modified="2023-05-31T08:19:17.015Z" agent="Mozilla/5.0 (Windows NT 10.0; Win64; x64) AppleWebKit/537.36 (KHTML, like Gecko) Chrome/113.0.0.0 Safari/537.36" version="21.3.4" etag="NIrxop4q8fVJ2JAvqV2s" type="github">
  <diagram name="페이지-1" id="uzoj9xJ59qx3_jtiK0-h">
    <mxGraphModel>
      <root>
        <mxCell id="0" />
        <mxCell id="1" parent="0" />
      </root>
    </mxGraphModel>
  </diagram>
</mxfile>
